<svg xmlns="http://www.w3.org/2000/svg" xmlns:xlink="http://www.w3.org/1999/xlink" width="1500" zoomAndPan="magnify" viewBox="0 0 1125 374.999991" height="500" preserveAspectRatio="xMidYMid meet" version="1.0"><defs><g/></defs><g fill="#000000" fill-opacity="1"><g transform="translate(23.793744, 210.050007)"><g><path d="M 8.390625 0 L 8.390625 -20 L 16.546875 -20.75 C 21.328125 -21.238281 23.71875 -23.539062 23.71875 -27.65625 L 23.71875 -142.515625 L 9.640625 -143.265625 L 9.640625 -164.25 L 77.3125 -164.25 C 101.519531 -164.25 120.414062 -157.828125 134 -144.984375 C 147.582031 -132.140625 154.375 -113.125 154.375 -87.9375 C 154.375 -72.289062 152.316406 -58.660156 148.203125 -47.046875 C 144.085938 -35.441406 138.488281 -26.347656 131.40625 -19.765625 C 117.238281 -6.585938 99.617188 0 78.546875 0 Z M 53.84375 -140.296875 L 53.84375 -23.71875 L 79.046875 -23.71875 C 93.203125 -23.71875 104.234375 -28.820312 112.140625 -39.03125 C 120.046875 -49.238281 124 -64.054688 124 -83.484375 C 124 -121.359375 107.941406 -140.296875 75.828125 -140.296875 Z M 53.84375 -140.296875 "/></g></g></g><g fill="#000000" fill-opacity="1"><g transform="translate(188.046755, 210.050007)"><g><path d="M 125.71875 0 L 8.390625 0 L 8.390625 -20 L 16.546875 -20.75 C 21.328125 -21.238281 23.71875 -23.539062 23.71875 -27.65625 L 23.71875 -142.515625 L 9.640625 -143.265625 L 9.640625 -164.25 L 122.765625 -164.25 L 122.765625 -123.25 L 97.5625 -121.53125 L 97.5625 -131.40625 C 97.5625 -134.207031 97.148438 -136.179688 96.328125 -137.328125 C 95.503906 -138.484375 93.53125 -139.0625 90.40625 -139.0625 L 53.84375 -139.0625 L 53.84375 -96.828125 L 110.90625 -96.828125 L 110.90625 -71.625 L 53.84375 -71.625 L 53.84375 -25.4375 L 93.609375 -25.4375 C 96.578125 -25.4375 98.472656 -26.050781 99.296875 -27.28125 C 100.117188 -28.519531 100.53125 -30.539062 100.53125 -33.34375 L 100.53125 -45.6875 L 125.71875 -43.96875 Z M 125.71875 0 "/></g></g></g><g fill="#000000" fill-opacity="1"><g transform="translate(323.648134, 210.050007)"><g><path d="M 107.6875 -138.078125 C 105.875 -141.203125 99.125 -142.765625 87.4375 -142.765625 C 72.125 -142.765625 60.515625 -137.578125 52.609375 -127.203125 C 44.703125 -116.828125 40.75 -101.84375 40.75 -82.25 C 40.75 -41.570312 55.984375 -21.234375 86.453125 -21.234375 C 86.941406 -21.234375 89.117188 -21.234375 92.984375 -21.234375 C 96.859375 -21.234375 100.523438 -21.769531 103.984375 -22.84375 C 107.441406 -23.914062 109.5 -25.023438 110.15625 -26.171875 C 110.820312 -27.328125 111.15625 -29.140625 111.15625 -31.609375 L 111.15625 -51.375 L 136.34375 -49.640625 L 136.34375 -6.921875 C 123.5 -0.160156 107.195312 3.21875 87.4375 3.21875 C 62.238281 3.21875 43.007812 -3.859375 29.75 -18.015625 C 16.5 -32.179688 9.875 -53.265625 9.875 -81.265625 C 9.875 -96.742188 12.097656 -110.242188 16.546875 -121.765625 C 20.992188 -133.296875 27.003906 -142.269531 34.578125 -148.6875 C 49.398438 -161.039062 67.019531 -167.21875 87.4375 -167.21875 C 103.90625 -167.21875 119.382812 -163.84375 133.875 -157.09375 L 133.875 -115.109375 L 108.6875 -113.375 L 108.6875 -132.640625 C 108.6875 -135.109375 108.351562 -136.921875 107.6875 -138.078125 Z M 107.6875 -138.078125 "/></g></g></g><g fill="#000000" fill-opacity="1"><g transform="translate(472.340364, 210.050007)"><g><path d="M 16.796875 -27.65625 L 56.5625 -142.765625 L 41 -144.25 L 41 -164.25 L 97.5625 -164.25 L 147.953125 -21.734375 L 148.203125 -21.734375 L 162.28125 -21 L 162.28125 0 L 98.546875 0 L 98.546875 -20 L 107.9375 -20.75 C 110.738281 -21.070312 112.632812 -21.726562 113.625 -22.71875 C 114.613281 -23.707031 114.691406 -25.519531 113.859375 -28.15625 L 108.6875 -43.46875 L 50.875 -43.46875 L 43.46875 -21.734375 L 58.296875 -21 L 58.296875 0 L 1.234375 0 L 1.234375 -20 L 9.390625 -20.75 C 12.847656 -21.070312 15.316406 -23.375 16.796875 -27.65625 Z M 79.78125 -136.59375 L 56.8125 -66.203125 L 102.75 -66.203125 L 80.515625 -136.59375 Z M 79.78125 -136.59375 "/></g></g></g><g fill="#000000" fill-opacity="1"><g transform="translate(635.852436, 210.050007)"><g><path d="M 7.90625 0 L 7.90625 -20 L 16.796875 -20.75 C 21.078125 -21.070312 23.21875 -23.375 23.21875 -27.65625 L 23.21875 -142.515625 L 9.140625 -143.265625 L 9.140625 -164.25 L 53.59375 -164.25 L 123.5 -50.875 L 124 -50.875 L 124 -142.515625 L 107.6875 -143.265625 L 107.6875 -164.25 L 167.953125 -164.25 L 167.953125 -144.25 L 159.0625 -143.5 C 155.113281 -143.175781 153.140625 -140.625 153.140625 -135.84375 L 153.140625 0 L 124.234375 0 L 52.859375 -115.109375 L 52.359375 -115.109375 L 52.359375 -21.734375 L 68.421875 -21 L 68.421875 0 Z M 7.90625 0 "/></g></g></g><g fill="#000000" fill-opacity="1"><g transform="translate(809.985317, 210.050007)"><g><path d="M 53.84375 -27.65625 L 53.84375 -139.796875 L 34.578125 -139.796875 C 30.796875 -139.796875 28.90625 -137.242188 28.90625 -132.140625 L 28.90625 -120.53125 L 3.703125 -122.265625 L 3.703125 -164.25 L 132.890625 -164.25 L 132.890625 -122.265625 L 107.6875 -120.53125 L 107.6875 -132.140625 C 107.6875 -134.941406 107.273438 -136.914062 106.453125 -138.0625 C 105.628906 -139.21875 103.65625 -139.796875 100.53125 -139.796875 L 83.734375 -139.796875 L 83.734375 -21.734375 L 103.25 -21 L 103.25 0 L 33.59375 0 L 33.59375 -20 L 46.6875 -20.75 C 51.457031 -21.238281 53.84375 -23.539062 53.84375 -27.65625 Z M 53.84375 -27.65625 "/></g></g></g><g fill="#000000" fill-opacity="1"><g transform="translate(946.574753, 210.050007)"><g><path d="M 7.90625 0 L 7.90625 -20 L 16.0625 -20.75 C 20.832031 -21.238281 23.21875 -23.539062 23.21875 -27.65625 L 23.21875 -142.515625 L 9.140625 -143.265625 L 9.140625 -164.25 L 76.5625 -164.25 C 95.664062 -164.25 110.320312 -160.707031 120.53125 -153.625 C 130.738281 -146.550781 135.84375 -134.945312 135.84375 -118.8125 C 135.84375 -107.613281 132.921875 -98.390625 127.078125 -91.140625 C 121.234375 -83.898438 114.273438 -78.628906 106.203125 -75.328125 C 112.140625 -73.191406 116.832031 -68.171875 120.28125 -60.265625 L 138.078125 -21.484375 L 152.15625 -21 L 152.15625 0 L 91.140625 0 L 91.140625 -20 L 98.3125 -20.75 C 102.09375 -21.238281 103.984375 -22.71875 103.984375 -25.1875 C 103.984375 -26.175781 103.65625 -27.332031 103 -28.65625 L 91.390625 -53.359375 C 89.578125 -57.472656 87.554688 -60.394531 85.328125 -62.125 C 83.109375 -63.851562 79.941406 -64.71875 75.828125 -64.71875 L 53.359375 -64.71875 L 53.359375 -21.734375 L 69.40625 -21 L 69.40625 0 Z M 53.359375 -88.171875 L 74.84375 -88.171875 C 95.09375 -88.171875 105.21875 -97.226562 105.21875 -115.34375 C 105.21875 -125.71875 102.539062 -132.46875 97.1875 -135.59375 C 91.84375 -138.726562 83.242188 -140.296875 71.390625 -140.296875 L 53.359375 -140.296875 Z M 53.359375 -88.171875 "/></g></g></g><g fill="#a10f18" fill-opacity="1"><g transform="translate(232.625798, 285.496637)"><g><path d="M 42.9375 -28.5 L 41.328125 -28.34375 C 40.484375 -28.28125 39.945312 -27.695312 39.71875 -26.59375 L 33.578125 0 L 26.890625 0 L 21.765625 -21.71875 L 21.609375 -21.71875 L 16.640625 0 L 9.765625 0 L 3.03125 -28.15625 L 0.25 -28.296875 L 0.25 -32.453125 L 12.34375 -32.453125 L 12.34375 -28.5 L 10.734375 -28.34375 C 9.722656 -28.25 9.21875 -27.828125 9.21875 -27.078125 C 9.21875 -26.953125 9.234375 -26.804688 9.265625 -26.640625 L 13.515625 -7.8125 L 13.71875 -7.8125 L 18.78125 -29.859375 L 25.078125 -29.859375 L 30.359375 -7.703125 L 30.453125 -7.703125 L 34.59375 -28.109375 L 31.96875 -28.296875 L 31.96875 -32.453125 L 42.9375 -32.453125 Z M 42.9375 -28.5 "/></g></g></g><g fill="#a10f18" fill-opacity="1"><g transform="translate(275.8006, 285.496637)"><g><path d="M 4.59375 -5.703125 L 4.59375 -28.15625 L 1.8125 -28.296875 L 1.8125 -32.453125 L 13.609375 -32.453125 L 13.609375 -28.5 L 12 -28.34375 C 11.0625 -28.25 10.59375 -27.734375 10.59375 -26.796875 L 10.59375 -4.296875 L 13.375 -4.140625 L 13.375 0 L 1.5625 0 L 1.5625 -3.953125 L 3.171875 -4.09375 C 3.660156 -4.164062 4.019531 -4.304688 4.25 -4.515625 C 4.476562 -4.722656 4.59375 -5.117188 4.59375 -5.703125 Z M 4.59375 -5.703125 "/></g></g></g><g fill="#a10f18" fill-opacity="1"><g transform="translate(290.777619, 285.496637)"><g><path d="M 1.5625 0 L 1.5625 -3.953125 L 3.3125 -4.09375 C 4.164062 -4.164062 4.59375 -4.625 4.59375 -5.46875 L 4.59375 -28.15625 L 1.8125 -28.296875 L 1.8125 -32.453125 L 10.59375 -32.453125 L 24.40625 -10.046875 L 24.5 -10.046875 L 24.5 -28.15625 L 21.28125 -28.296875 L 21.28125 -32.453125 L 33.1875 -32.453125 L 33.1875 -28.5 L 31.421875 -28.34375 C 30.640625 -28.28125 30.25 -27.78125 30.25 -26.84375 L 30.25 0 L 24.546875 0 L 10.4375 -22.734375 L 10.34375 -22.734375 L 10.34375 -4.296875 L 13.515625 -4.140625 L 13.515625 0 Z M 1.5625 0 "/></g></g></g><g fill="#a10f18" fill-opacity="1"><g transform="translate(325.171106, 285.496637)"><g><path d="M 24.84375 0 L 1.65625 0 L 1.65625 -3.953125 L 3.265625 -4.09375 C 4.210938 -4.195312 4.6875 -4.65625 4.6875 -5.46875 L 4.6875 -28.15625 L 1.90625 -28.296875 L 1.90625 -32.453125 L 24.25 -32.453125 L 24.25 -24.34375 L 19.28125 -24.015625 L 19.28125 -25.953125 C 19.28125 -26.515625 19.195312 -26.90625 19.03125 -27.125 C 18.863281 -27.351562 18.472656 -27.46875 17.859375 -27.46875 L 10.640625 -27.46875 L 10.640625 -19.125 L 21.90625 -19.125 L 21.90625 -14.15625 L 10.640625 -14.15625 L 10.640625 -5.03125 L 18.5 -5.03125 C 19.082031 -5.03125 19.453125 -5.148438 19.609375 -5.390625 C 19.773438 -5.640625 19.859375 -6.039062 19.859375 -6.59375 L 19.859375 -9.03125 L 24.84375 -8.6875 Z M 24.84375 0 "/></g></g></g><g fill="#a10f18" fill-opacity="1"><g transform="translate(351.954124, 285.496637)"><g/></g></g><g fill="#a10f18" fill-opacity="1"><g transform="translate(361.711139, 285.496637)"><g><path d="M 21.28125 -27.28125 C 20.914062 -27.894531 19.582031 -28.203125 17.28125 -28.203125 C 14.25 -28.203125 11.953125 -27.175781 10.390625 -25.125 C 8.828125 -23.082031 8.046875 -20.125 8.046875 -16.25 C 8.046875 -8.21875 11.054688 -4.203125 17.078125 -4.203125 C 17.171875 -4.203125 17.597656 -4.203125 18.359375 -4.203125 C 19.128906 -4.203125 19.851562 -4.304688 20.53125 -4.515625 C 21.21875 -4.722656 21.625 -4.941406 21.75 -5.171875 C 21.882812 -5.398438 21.953125 -5.757812 21.953125 -6.25 L 21.953125 -10.15625 L 26.9375 -9.8125 L 26.9375 -1.359375 C 24.394531 -0.0234375 21.175781 0.640625 17.28125 0.640625 C 12.300781 0.640625 8.5 -0.757812 5.875 -3.5625 C 3.257812 -6.363281 1.953125 -10.523438 1.953125 -16.046875 C 1.953125 -19.109375 2.390625 -21.773438 3.265625 -24.046875 C 4.148438 -26.328125 5.335938 -28.101562 6.828125 -29.375 C 9.753906 -31.8125 13.238281 -33.03125 17.28125 -33.03125 C 20.53125 -33.03125 23.585938 -32.363281 26.453125 -31.03125 L 26.453125 -22.734375 L 21.46875 -22.390625 L 21.46875 -26.203125 C 21.46875 -26.691406 21.40625 -27.050781 21.28125 -27.28125 Z M 21.28125 -27.28125 "/></g></g></g><g fill="#a10f18" fill-opacity="1"><g transform="translate(391.079767, 285.496637)"><g><path d="M 16.859375 -33.03125 C 20.710938 -33.03125 23.941406 -31.664062 26.546875 -28.9375 C 29.148438 -26.207031 30.453125 -22.035156 30.453125 -16.421875 C 30.453125 -10.804688 29.15625 -6.554688 26.5625 -3.671875 C 23.976562 -0.796875 20.484375 0.640625 16.078125 0.640625 C 11.671875 0.640625 8.210938 -0.789062 5.703125 -3.65625 C 3.203125 -6.519531 1.953125 -10.6875 1.953125 -16.15625 C 1.953125 -19.144531 2.390625 -21.769531 3.265625 -24.03125 C 4.148438 -26.289062 5.304688 -28.039062 6.734375 -29.28125 C 9.628906 -31.78125 13.003906 -33.03125 16.859375 -33.03125 Z M 8.046875 -16.390625 C 8.046875 -8.328125 10.84375 -4.296875 16.4375 -4.296875 C 19.4375 -4.296875 21.535156 -5.53125 22.734375 -8 C 23.847656 -10.175781 24.40625 -12.84375 24.40625 -16 C 24.40625 -18.832031 23.914062 -21.4375 22.9375 -23.8125 C 22.382812 -25.113281 21.546875 -26.140625 20.421875 -26.890625 C 19.296875 -27.640625 17.835938 -28.015625 16.046875 -28.015625 C 14.265625 -28.015625 12.726562 -27.425781 11.4375 -26.25 C 10.15625 -25.082031 9.269531 -23.664062 8.78125 -22 C 8.289062 -20.34375 8.046875 -18.472656 8.046875 -16.390625 Z M 8.046875 -16.390625 "/></g></g></g><g fill="#a10f18" fill-opacity="1"><g transform="translate(423.473068, 285.496637)"><g><path d="M 12.109375 -32.453125 L 20.390625 -10.390625 L 20.5 -10.390625 L 28.84375 -32.453125 L 38.5 -32.453125 L 38.5 -28.5 L 36.890625 -28.34375 C 35.910156 -28.25 35.4375 -27.679688 35.46875 -26.640625 L 36.6875 -4.296875 L 39.71875 -4.140625 L 39.71875 0 L 27.953125 0 L 27.953125 -3.953125 L 29.71875 -4.09375 C 30.59375 -4.164062 31.015625 -4.59375 30.984375 -5.375 L 30.0625 -22.59375 L 29.96875 -22.59375 L 22.453125 -3.125 L 17.8125 -3.125 L 10.390625 -22.390625 L 10.296875 -22.390625 L 9.3125 -4.296875 L 12.484375 -4.140625 L 12.484375 0 L 0.96875 0 L 0.96875 -3.953125 L 2.734375 -4.09375 C 3.484375 -4.164062 3.890625 -4.609375 3.953125 -5.421875 L 5.265625 -28.109375 L 2.296875 -28.296875 L 2.296875 -32.453125 Z M 12.109375 -32.453125 "/></g></g></g><g fill="#a10f18" fill-opacity="1"><g transform="translate(464.159832, 285.496637)"><g><path d="M 12.109375 -32.453125 L 20.390625 -10.390625 L 20.5 -10.390625 L 28.84375 -32.453125 L 38.5 -32.453125 L 38.5 -28.5 L 36.890625 -28.34375 C 35.910156 -28.25 35.4375 -27.679688 35.46875 -26.640625 L 36.6875 -4.296875 L 39.71875 -4.140625 L 39.71875 0 L 27.953125 0 L 27.953125 -3.953125 L 29.71875 -4.09375 C 30.59375 -4.164062 31.015625 -4.59375 30.984375 -5.375 L 30.0625 -22.59375 L 29.96875 -22.59375 L 22.453125 -3.125 L 17.8125 -3.125 L 10.390625 -22.390625 L 10.296875 -22.390625 L 9.3125 -4.296875 L 12.484375 -4.140625 L 12.484375 0 L 0.96875 0 L 0.96875 -3.953125 L 2.734375 -4.09375 C 3.484375 -4.164062 3.890625 -4.609375 3.953125 -5.421875 L 5.265625 -28.109375 L 2.296875 -28.296875 L 2.296875 -32.453125 Z M 12.109375 -32.453125 "/></g></g></g><g fill="#a10f18" fill-opacity="1"><g transform="translate(504.846597, 285.496637)"><g><path d="M 9.8125 -26.734375 L 9.8125 -10.546875 C 9.8125 -8.265625 10.351562 -6.660156 11.4375 -5.734375 C 12.53125 -4.804688 14.09375 -4.34375 16.125 -4.34375 C 18.15625 -4.34375 19.734375 -4.847656 20.859375 -5.859375 C 21.984375 -6.867188 22.546875 -8.347656 22.546875 -10.296875 L 22.546875 -28.15625 L 19.71875 -28.296875 L 19.71875 -32.453125 L 31.28125 -32.453125 L 31.28125 -28.5 L 29.671875 -28.34375 C 28.722656 -28.25 28.25 -27.765625 28.25 -26.890625 L 28.25 -9.46875 C 28.25 -6.3125 27.140625 -3.835938 24.921875 -2.046875 C 22.710938 -0.253906 19.65625 0.640625 15.75 0.640625 C 11.851562 0.640625 8.90625 -0.226562 6.90625 -1.96875 C 4.90625 -3.71875 3.90625 -6.476562 3.90625 -10.25 L 3.90625 -28.15625 L 1.078125 -28.296875 L 1.078125 -32.453125 L 12.875 -32.453125 L 12.875 -28.5 L 11.265625 -28.34375 C 10.742188 -28.28125 10.367188 -28.144531 10.140625 -27.9375 C 9.921875 -27.726562 9.8125 -27.328125 9.8125 -26.734375 Z M 9.8125 -26.734375 "/></g></g></g><g fill="#a10f18" fill-opacity="1"><g transform="translate(536.995955, 285.496637)"><g><path d="M 1.5625 0 L 1.5625 -3.953125 L 3.3125 -4.09375 C 4.164062 -4.164062 4.59375 -4.625 4.59375 -5.46875 L 4.59375 -28.15625 L 1.8125 -28.296875 L 1.8125 -32.453125 L 10.59375 -32.453125 L 24.40625 -10.046875 L 24.5 -10.046875 L 24.5 -28.15625 L 21.28125 -28.296875 L 21.28125 -32.453125 L 33.1875 -32.453125 L 33.1875 -28.5 L 31.421875 -28.34375 C 30.640625 -28.28125 30.25 -27.78125 30.25 -26.84375 L 30.25 0 L 24.546875 0 L 10.4375 -22.734375 L 10.34375 -22.734375 L 10.34375 -4.296875 L 13.515625 -4.140625 L 13.515625 0 Z M 1.5625 0 "/></g></g></g><g fill="#a10f18" fill-opacity="1"><g transform="translate(571.389454, 285.496637)"><g><path d="M 4.59375 -5.703125 L 4.59375 -28.15625 L 1.8125 -28.296875 L 1.8125 -32.453125 L 13.609375 -32.453125 L 13.609375 -28.5 L 12 -28.34375 C 11.0625 -28.25 10.59375 -27.734375 10.59375 -26.796875 L 10.59375 -4.296875 L 13.375 -4.140625 L 13.375 0 L 1.5625 0 L 1.5625 -3.953125 L 3.171875 -4.09375 C 3.660156 -4.164062 4.019531 -4.304688 4.25 -4.515625 C 4.476562 -4.722656 4.59375 -5.117188 4.59375 -5.703125 Z M 4.59375 -5.703125 "/></g></g></g><g fill="#a10f18" fill-opacity="1"><g transform="translate(586.366473, 285.496637)"><g><path d="M 10.640625 -5.46875 L 10.640625 -27.625 L 6.828125 -27.625 C 6.078125 -27.625 5.703125 -27.117188 5.703125 -26.109375 L 5.703125 -23.8125 L 0.734375 -24.15625 L 0.734375 -32.453125 L 26.25 -32.453125 L 26.25 -24.15625 L 21.28125 -23.8125 L 21.28125 -26.109375 C 21.28125 -26.660156 21.195312 -27.050781 21.03125 -27.28125 C 20.863281 -27.507812 20.472656 -27.625 19.859375 -27.625 L 16.546875 -27.625 L 16.546875 -4.296875 L 20.390625 -4.140625 L 20.390625 0 L 6.640625 0 L 6.640625 -3.953125 L 9.21875 -4.09375 C 10.164062 -4.195312 10.640625 -4.65625 10.640625 -5.46875 Z M 10.640625 -5.46875 "/></g></g></g><g fill="#a10f18" fill-opacity="1"><g transform="translate(613.832589, 285.496637)"><g><path d="M 10.828125 -5.46875 L 10.828125 -12.390625 L 2.53125 -28.15625 L 0.25 -28.296875 L 0.25 -32.453125 L 12.15625 -32.453125 L 12.15625 -28.5 L 10.6875 -28.34375 C 10.164062 -28.3125 9.832031 -28.117188 9.6875 -27.765625 C 9.539062 -27.410156 9.597656 -26.972656 9.859375 -26.453125 L 14 -17.953125 L 14.203125 -17.953125 L 19.515625 -28.109375 L 17.078125 -28.296875 L 17.078125 -32.453125 L 27.5625 -32.453125 L 27.5625 -28.5 L 26.109375 -28.34375 C 25.484375 -28.28125 24.929688 -27.796875 24.453125 -26.890625 L 16.78125 -12.390625 L 16.78125 -4.296875 L 20.59375 -4.140625 L 20.59375 0 L 6.828125 0 L 6.828125 -3.953125 L 9.421875 -4.09375 C 10.359375 -4.164062 10.828125 -4.625 10.828125 -5.46875 Z M 10.828125 -5.46875 "/></g></g></g><g fill="#a10f18" fill-opacity="1"><g transform="translate(641.640082, 285.496637)"><g/></g></g><g fill="#a10f18" fill-opacity="1"><g transform="translate(651.397086, 285.496637)"><g><path d="M 1.5625 0 L 1.5625 -3.953125 L 3.171875 -4.09375 C 4.117188 -4.195312 4.59375 -4.65625 4.59375 -5.46875 L 4.59375 -28.15625 L 1.8125 -28.296875 L 1.8125 -32.453125 L 15.765625 -32.453125 C 19.410156 -32.453125 22.25 -31.597656 24.28125 -29.890625 C 26.3125 -28.179688 27.328125 -25.617188 27.328125 -22.203125 C 27.328125 -18.785156 26.171875 -16.125 23.859375 -14.21875 C 21.546875 -12.320312 18.488281 -11.375 14.6875 -11.375 L 10.546875 -11.375 L 10.546875 -4.296875 L 15.21875 -4.140625 L 15.21875 0 Z M 10.546875 -16.109375 L 14.046875 -16.109375 C 18.796875 -16.109375 21.171875 -18.039062 21.171875 -21.90625 C 21.171875 -24.25 20.5625 -25.800781 19.34375 -26.5625 C 18.125 -27.332031 16.179688 -27.71875 13.515625 -27.71875 L 10.546875 -27.71875 Z M 10.546875 -16.109375 "/></g></g></g><g fill="#a10f18" fill-opacity="1"><g transform="translate(680.180302, 285.496637)"><g><path d="M 24.734375 0 L 1.5625 0 L 1.5625 -3.953125 L 3.171875 -4.09375 C 4.117188 -4.195312 4.59375 -4.65625 4.59375 -5.46875 L 4.59375 -28.15625 L 1.8125 -28.296875 L 1.8125 -32.453125 L 13.5625 -32.453125 L 13.5625 -28.5 L 11.953125 -28.34375 C 11.015625 -28.25 10.546875 -27.734375 10.546875 -26.796875 L 10.546875 -5.03125 L 18.640625 -5.03125 C 19.097656 -5.03125 19.398438 -5.148438 19.546875 -5.390625 C 19.691406 -5.640625 19.765625 -6.039062 19.765625 -6.59375 L 19.765625 -10 L 24.734375 -9.65625 Z M 24.734375 0 "/></g></g></g><g fill="#a10f18" fill-opacity="1"><g transform="translate(706.377887, 285.496637)"><g><path d="M 3.3125 -5.46875 L 11.171875 -28.203125 L 8.09375 -28.5 L 8.09375 -32.453125 L 19.28125 -32.453125 L 29.234375 -4.296875 L 29.28125 -4.296875 L 32.0625 -4.140625 L 32.0625 0 L 19.46875 0 L 19.46875 -3.953125 L 21.328125 -4.09375 C 21.878906 -4.164062 22.25 -4.296875 22.4375 -4.484375 C 22.632812 -4.679688 22.65625 -5.039062 22.5 -5.5625 L 21.46875 -8.59375 L 10.046875 -8.59375 L 8.59375 -4.296875 L 11.515625 -4.140625 L 11.515625 0 L 0.25 0 L 0.25 -3.953125 L 1.859375 -4.09375 C 2.535156 -4.164062 3.019531 -4.625 3.3125 -5.46875 Z M 15.765625 -26.984375 L 11.21875 -13.078125 L 20.296875 -13.078125 L 15.90625 -26.984375 Z M 15.765625 -26.984375 "/></g></g></g><g fill="#a10f18" fill-opacity="1"><g transform="translate(735.257966, 285.496637)"><g><path d="M 10.640625 -5.46875 L 10.640625 -27.625 L 6.828125 -27.625 C 6.078125 -27.625 5.703125 -27.117188 5.703125 -26.109375 L 5.703125 -23.8125 L 0.734375 -24.15625 L 0.734375 -32.453125 L 26.25 -32.453125 L 26.25 -24.15625 L 21.28125 -23.8125 L 21.28125 -26.109375 C 21.28125 -26.660156 21.195312 -27.050781 21.03125 -27.28125 C 20.863281 -27.507812 20.472656 -27.625 19.859375 -27.625 L 16.546875 -27.625 L 16.546875 -4.296875 L 20.390625 -4.140625 L 20.390625 0 L 6.640625 0 L 6.640625 -3.953125 L 9.21875 -4.09375 C 10.164062 -4.195312 10.640625 -4.65625 10.640625 -5.46875 Z M 10.640625 -5.46875 "/></g></g></g><g fill="#a10f18" fill-opacity="1"><g transform="translate(762.236129, 285.496637)"><g><path d="M 1.65625 0 L 1.65625 -3.953125 L 3.265625 -4.09375 C 4.210938 -4.195312 4.6875 -4.65625 4.6875 -5.46875 L 4.6875 -28.15625 L 1.90625 -28.296875 L 1.90625 -32.453125 L 25.46875 -32.453125 L 25.46875 -24.34375 L 20.5 -24.015625 L 20.5 -25.953125 C 20.5 -26.515625 20.414062 -26.90625 20.25 -27.125 C 20.082031 -27.351562 19.691406 -27.46875 19.078125 -27.46875 L 10.640625 -27.46875 L 10.640625 -18.828125 L 22.640625 -18.828125 L 22.640625 -13.859375 L 10.640625 -13.859375 L 10.640625 -4.296875 L 14.984375 -4.140625 L 14.984375 0 Z M 1.65625 0 "/></g></g></g><g fill="#a10f18" fill-opacity="1"><g transform="translate(788.726408, 285.496637)"><g><path d="M 16.859375 -33.03125 C 20.710938 -33.03125 23.941406 -31.664062 26.546875 -28.9375 C 29.148438 -26.207031 30.453125 -22.035156 30.453125 -16.421875 C 30.453125 -10.804688 29.15625 -6.554688 26.5625 -3.671875 C 23.976562 -0.796875 20.484375 0.640625 16.078125 0.640625 C 11.671875 0.640625 8.210938 -0.789062 5.703125 -3.65625 C 3.203125 -6.519531 1.953125 -10.6875 1.953125 -16.15625 C 1.953125 -19.144531 2.390625 -21.769531 3.265625 -24.03125 C 4.148438 -26.289062 5.304688 -28.039062 6.734375 -29.28125 C 9.628906 -31.78125 13.003906 -33.03125 16.859375 -33.03125 Z M 8.046875 -16.390625 C 8.046875 -8.328125 10.84375 -4.296875 16.4375 -4.296875 C 19.4375 -4.296875 21.535156 -5.53125 22.734375 -8 C 23.847656 -10.175781 24.40625 -12.84375 24.40625 -16 C 24.40625 -18.832031 23.914062 -21.4375 22.9375 -23.8125 C 22.382812 -25.113281 21.546875 -26.140625 20.421875 -26.890625 C 19.296875 -27.640625 17.835938 -28.015625 16.046875 -28.015625 C 14.265625 -28.015625 12.726562 -27.425781 11.4375 -26.25 C 10.15625 -25.082031 9.269531 -23.664062 8.78125 -22 C 8.289062 -20.34375 8.046875 -18.472656 8.046875 -16.390625 Z M 8.046875 -16.390625 "/></g></g></g><g fill="#a10f18" fill-opacity="1"><g transform="translate(821.119731, 285.496637)"><g><path d="M 1.5625 0 L 1.5625 -3.953125 L 3.171875 -4.09375 C 4.117188 -4.195312 4.59375 -4.65625 4.59375 -5.46875 L 4.59375 -28.15625 L 1.8125 -28.296875 L 1.8125 -32.453125 L 15.125 -32.453125 C 18.894531 -32.453125 21.789062 -31.75 23.8125 -30.34375 C 25.832031 -28.945312 26.84375 -26.65625 26.84375 -23.46875 C 26.84375 -21.257812 26.265625 -19.4375 25.109375 -18 C 23.953125 -16.570312 22.578125 -15.535156 20.984375 -14.890625 C 22.148438 -14.460938 23.078125 -13.46875 23.765625 -11.90625 L 27.28125 -4.25 L 30.0625 -4.140625 L 30.0625 0 L 18 0 L 18 -3.953125 L 19.421875 -4.09375 C 20.171875 -4.195312 20.546875 -4.492188 20.546875 -4.984375 C 20.546875 -5.171875 20.476562 -5.394531 20.34375 -5.65625 L 18.0625 -10.546875 C 17.695312 -11.359375 17.296875 -11.929688 16.859375 -12.265625 C 16.421875 -12.609375 15.796875 -12.78125 14.984375 -12.78125 L 10.546875 -12.78125 L 10.546875 -4.296875 L 13.71875 -4.140625 L 13.71875 0 Z M 10.546875 -17.421875 L 14.78125 -17.421875 C 18.78125 -17.421875 20.78125 -19.207031 20.78125 -22.78125 C 20.78125 -24.832031 20.25 -26.164062 19.1875 -26.78125 C 18.132812 -27.40625 16.441406 -27.71875 14.109375 -27.71875 L 10.546875 -27.71875 Z M 10.546875 -17.421875 "/></g></g></g><g fill="#a10f18" fill-opacity="1"><g transform="translate(851.659204, 285.496637)"><g><path d="M 12.109375 -32.453125 L 20.390625 -10.390625 L 20.5 -10.390625 L 28.84375 -32.453125 L 38.5 -32.453125 L 38.5 -28.5 L 36.890625 -28.34375 C 35.910156 -28.25 35.4375 -27.679688 35.46875 -26.640625 L 36.6875 -4.296875 L 39.71875 -4.140625 L 39.71875 0 L 27.953125 0 L 27.953125 -3.953125 L 29.71875 -4.09375 C 30.59375 -4.164062 31.015625 -4.59375 30.984375 -5.375 L 30.0625 -22.59375 L 29.96875 -22.59375 L 22.453125 -3.125 L 17.8125 -3.125 L 10.390625 -22.390625 L 10.296875 -22.390625 L 9.3125 -4.296875 L 12.484375 -4.140625 L 12.484375 0 L 0.96875 0 L 0.96875 -3.953125 L 2.734375 -4.09375 C 3.484375 -4.164062 3.890625 -4.609375 3.953125 -5.421875 L 5.265625 -28.109375 L 2.296875 -28.296875 L 2.296875 -32.453125 Z M 12.109375 -32.453125 "/></g></g></g></svg>